# xmcd
#
# Track frame offsets: 
#        182
#        15312
#        33197
#        49147
#        66327
#        81585
#        95627
#        112027
#        125965
#        144395
#        163240
#        184480
#
# Disc length: 2654 seconds
#
# Revision: 4
# Processed by: cddbd v1.5.2PL0 Copyright (c) Steve Scherf et al.
# Submitted via: ExactAudioCopy v1.3
#
DISCID=b20a5c0c
DTITLE=Diana Ross - Red Hot Rhythm And Blues
DYEAR=1987
DGENRE=Blues
TTITLE0=Dirty Looks
TTITLE1=Stranger In Paradise
TTITLE2=Shine
TTITLE3=Shockwaves
TTITLE4=Selfish One
TTITLE5=Mr. Lee
TTITLE6=Tell Mama
TTITLE7=There Goes My Baby
TTITLE8=Summertime
TTITLE9=Cross My Heart
TTITLE10=It's Hard For Me To Say
TTITLE11=Tell Me Again
EXTD=077774678728 YEAR: 1987
EXTT0=
EXTT1=
EXTT2=
EXTT3=
EXTT4=
EXTT5=
EXTT6=
EXTT7=
EXTT8=
EXTT9=
EXTT10=
EXTT11=
PLAYORDER=
